<svg xmlns="http://www.w3.org/2000/svg" version="1.1" xmlns:xlink="http://www.w3.org/1999/xlink" xmlns:svgjs="http://svgjs.dev/svgjs" width="1000" height="1125" viewBox="0 0 1000 1125"><g transform="matrix(1,0,0,1,1.7053025658242404e-13,0)"><svg viewBox="0 0 320 360" data-background-color="#ffffff" preserveAspectRatio="xMidYMid meet" height="1125" width="1000" xmlns="http://www.w3.org/2000/svg" xmlns:xlink="http://www.w3.org/1999/xlink"><defs></defs><g id="tight-bounds" transform="matrix(1,0,0,1,0,0)"><svg viewBox="0 0 320 360" height="360" width="320"><g><svg></svg></g><g><svg viewBox="0 0 320 360" height="360" width="320"><g><path d="M20.961 227.22l3.726 4.658-1.863-6.056c-0.466-2.795-3.726 0.466-1.863 1.398M25.153 224.425c1.397 2.329 2.795 4.658 2.795 6.987 0 3.261 2.795 4.658 5.123 5.589-3.261-3.726-5.124-13.974-7.918-12.576M204.017 26.929c7.918 0 15.371-0.932 23.756 0.931 20.495 5.124 37.729 15.371 49.374 29.811l32.606 52.169c1.397 13.042 4.192 27.482 3.726 43.319 3.261 0 2.795-4.658 6.521-5.59-3.726 9.316-5.59 20.961-6.521 34.469-2.329-7.453 0-18.632 0.466-24.687-3.261 5.124-5.124 1.397-5.124-0.932 0.466-3.726-1.397-3.261-2.795-4.658-5.124-4.658-8.384-9.782-12.11-17.7 2.329-6.055 2.795-14.905-4.658-19.563-2.329-1.397-5.124-3.726-6.521-7.453-1.863-5.124-5.124-11.179-4.193-19.097 0.466-2.329-6.987 5.124-11.179 1.863-18.166-12.576-36.332-27.016-58.224-39.127-11.645 0-20.029-4.192-24.221-9.316-3.726-4.658-0.932-10.713 4.658-11.179 3.261 0 6.987-0.932 9.782 0.932 0.466-1.863 2.329-4.192 4.657-4.192M157.904 16.215l0.932 0.466c4.658 0.932 6.987 7.453 12.11 5.124 0 3.261 0.466 6.521-0.466 8.85-1.397 3.726-5.59 3.726-8.85 3.726-31.208-1.863-49.374 11.179-68.471 22.358-5.124 3.261-10.713 5.59-14.906 9.782-20.029 18.632-41.921 35.866-47.045 70.335l-4.192 38.195c-0.466 4.192-5.124 8.384-4.192 13.508l3.26 22.824c-3.261-3.261-5.124 0.932-4.192 2.795 0.466 1.397 2.329 6.055 5.124 1.863 3.726 6.987 7.453 20.495 12.576 26.55 15.837 18.632 36.332 35.4 53.101 52.169 4.192-0.932 7.453-0.932 8.384-3.727 1.397 2.795-1.397 5.59-3.726 6.056 7.453 4.658 15.837 8.85 27.016 9.781 14.44 0.932 27.948 3.261 40.524 6.522 6.521-1.863 13.042-2.795 20.029-3.261 2.329 0 3.726-3.726 6.521-4.658l0.466-4.658c2.795 4.192 2.329-1.397 0.466-4.192 3.261 2.795 4.192 5.124 5.589 6.987 0-1.397 3.726-6.521 3.727-0.466l0.931-6.055c1.397-0.932 1.863 5.124 3.261 0.931 1.397-4.192 4.192-0.932 6.987-2.329-0.932 1.863-0.466 5.59 2.794 3.261l3.727-3.261c2.329 5.59 6.055 3.261 7.918 2.329 20.495-13.042 40.99-28.413 60.553-43.784l-0.466 6.055 2.329-7.453c2.329 2.329 4.192 0.466 5.124-0.931 2.795-4.658 6.521-9.316 12.577-13.508-7.453 20.029-16.303 35.866-27.482 48.908l-4.658 5.59c0 3.261-0.932 7.453-4.658 7.918-1.863 0.466-5.59-0.932-8.384 1.863-1.397 1.863 3.261 5.59-0.466 2.795-3.261-2.329-6.521 0-10.248 0.932-2.795 0.932 1.863 3.726 2.795 5.589 0.932 1.863 1.863 3.726 1.398 6.056l-5.124-5.59c-6.055 3.261-9.782 9.316-14.906 13.974-2.329 1.863-1.397 5.124-1.397 7.918-3.261 0-6.987-0.932-8.85 0.932-1.397 1.863-0.932 4.658-0.932 7.453-4.658-0.466-5.124-7.453-9.315-6.056-4.192 0.932-8.85 1.397-12.577 3.727 2.795 5.59-4.658 2.329-3.726 3.26-6.987-4.192-13.042-7.453-20.495-4.658-15.837-5.124-35.4-2.795-49.84-0.931 0-2.329 0.466-4.658-0.466-5.124-0.932 2.329-3.726 1.397-3.26 1.397-8.85-6.055-17.7-9.782-27.016-14.905-8.384 0.932-16.303-3.261-18.632-5.59-6.521-6.055-13.974-2.795-20.029-4.192-13.042-3.261-17.7-16.769-19.098-26.084-0.932-4.658-4.658-6.521-6.055-6.056-6.055-19.563-15.371-37.263-22.824-55.429-1.863-4.658-1.397-9.316-1.397-14.44 2.329 0.932 4.658 0.466 4.192-2.794-2.329-15.371-7.918-27.016-13.974-38.195 3.261-15.837 3.726-34.469 11.179-48.443 6.521-12.576 18.632-19.098 27.016-29.811 2.795-3.726 2.795-8.85 5.59-12.11 9.316-9.316 18.632-19.098 28.879-27.482 4.658-3.726 10.247 0 17.234-1.397 2.329-8.384 11.645-15.837 20.495-13.508 3.726 0.932 11.179-8.85 13.508-9.782 3.726-1.397 1.863 3.726 1.863 6.987 8.85-6.987 20.961-10.713 32.14-14.906" fill="#0718c4" data-fill-palette-color="tertiary"></path></g><g transform="matrix(1,0,0,1,64,158.23879391573564)"><svg viewBox="0 0 192 43.52241216852874" height="43.52241216852874" width="192"><g><svg viewBox="0 0 192 43.52241216852874" height="43.52241216852874" width="192"><g><svg viewBox="0 0 192.00000000000003 43.522412168528746" height="43.52241216852874" width="192"><g><svg viewBox="0 0 192.00000000000003 43.522412168528746" height="43.522412168528746" width="192.00000000000003"><g><svg viewBox="0 0 192.00000000000003 43.522412168528746" height="43.522412168528746" width="192.00000000000003"><g><svg viewBox="0 0 192.00000000000003 43.522412168528746" height="43.522412168528746" width="192.00000000000003"><g transform="matrix(1,0,0,1,0,0)"><svg width="192.00000000000003" viewBox="2.6100001335144043 -39.84000015258789 181.36000061035156 41.11000061035156" height="43.522412168528746" data-palette-color="#275bc3"><path d="M29.13-0.78L23.19 0.88Q22.92 0.95 22.49 1.11 22.05 1.27 21.63 1.27L21.63 1.27Q21.29 1.27 21.03 1.1 20.78 0.93 20.78 0.51L20.78 0.51 20.78 0.37Q20.92-0.95 21.02-1.87 21.12-2.78 21.2-3.53 21.29-4.27 21.35-5.02 21.41-5.76 21.51-6.75 21.61-7.74 21.74-9.09 21.88-10.45 22.07-12.48L22.07-12.48Q22.19-13.72 22.29-15.01 22.39-16.31 22.39-17.41L22.39-17.41Q22.39-18.14 22.28-18.76 22.17-19.38 21.89-19.84 21.61-20.29 21.12-20.53 20.63-20.78 19.87-20.78L19.87-20.78Q19.31-20.78 18.32-20.53 17.33-20.29 16.36-19.73 15.38-19.17 14.62-18.25 13.87-17.33 13.77-15.99L13.77-15.99Q13.62-14.18 13.5-12.9 13.38-11.62 13.28-10.73 13.18-9.84 13.12-9.28 13.06-8.72 13.04-8.33L13.04-8.33Q13.01-8.23 12.96-7.79 12.92-7.35 12.85-6.74 12.79-6.13 12.73-5.44 12.67-4.76 12.61-4.15 12.55-3.54 12.51-3.1 12.48-2.66 12.48-2.56L12.48-2.56Q12.48-2.37 12.49-2.23 12.5-2.1 12.5-1.98L12.5-1.98Q12.5-1.78 12.32-1.65 12.13-1.51 11.5-1.34L11.5-1.34 5.03 0.88Q4.76 0.98 4.32 1.12 3.88 1.27 3.47 1.27L3.47 1.27Q3.13 1.27 2.87 1.1 2.61 0.93 2.61 0.51L2.61 0.51 4.83-24.44Q4.91-25.24 5.02-25.55 5.13-25.85 5.57-25.95L5.57-25.95Q7.79-26.39 10.13-26.84 12.48-27.29 14.7-28L14.7-28Q14.89-28 14.93-27.94 14.97-27.88 14.97-27.76L14.97-27.76Q14.97-27.71 14.95-27.61 14.94-27.51 14.88-27.17 14.82-26.83 14.71-26.14 14.6-25.44 14.4-24.19L14.4-24.19Q16.09-25.17 17.57-25.77 19.04-26.37 20.35-26.7 21.66-27.03 22.8-27.14 23.95-27.25 24.95-27.25L24.95-27.25Q28.39-27.25 29.96-25.16 31.52-23.07 31.52-18.9L31.52-18.9Q31.52-18.31 31.49-17.69 31.47-17.07 31.4-16.41L31.4-16.41 30.27-5.91Q30.15-4.88 30.13-4.02 30.1-3.15 30.1-2L30.1-2Q30.1-1.81 30.11-1.67 30.13-1.54 30.13-1.44L30.13-1.44Q30.13-1.22 29.94-1.1 29.76-0.98 29.13-0.78L29.13-0.78ZM48.63 1.27L48.63 1.27Q45.19 1.27 42.59 0.15 39.99-0.98 38.23-2.84 36.47-4.71 35.59-7.14 34.71-9.57 34.71-12.18L34.71-12.18Q34.71-14.79 35.57-17.15 36.42-19.51 37.96-21.37 39.5-23.24 41.65-24.5 43.8-25.76 46.38-26.2L46.38-26.2Q46.77-26.22 46.77-26.37L46.77-26.37Q46.77-26.64 46.71-26.87 46.65-27.1 46.65-27.27L46.65-27.27Q46.65-27.54 46.75-27.64 46.85-27.73 46.97-27.73L46.97-27.73Q51.63-27.73 54.9-26.67 58.18-25.61 60.23-23.78 62.28-21.95 63.21-19.46 64.13-16.97 64.13-14.11L64.13-14.11Q64.13-10.47 62.91-7.62 61.69-4.76 59.58-2.78 57.47-0.81 54.65 0.23 51.83 1.27 48.63 1.27ZM44.11-12.45L44.11-12.45Q44.11-11.13 44.39-9.84 44.68-8.54 45.32-7.5 45.97-6.45 47.02-5.8 48.07-5.15 49.63-5.15L49.63-5.15Q50.75-5.2 51.6-5.65 52.44-6.1 53.05-6.82 53.66-7.54 54.06-8.45 54.47-9.35 54.7-10.31 54.93-11.28 55.03-12.21 55.12-13.13 55.12-13.89L55.12-13.89Q55.12-15.16 54.75-16.38 54.37-17.6 53.64-18.53 52.9-19.46 51.82-20.03 50.73-20.61 49.31-20.61L49.31-20.61Q47.85-20.61 46.85-19.74 45.85-18.87 45.25-17.6 44.65-16.33 44.38-14.93 44.11-13.53 44.11-12.45ZM84.76-18.82L80.22-18.82Q79.88-16.26 79.57-13.71 79.27-11.16 79.19-8.94L79.19-8.94Q79.19-7.98 79.34-7.35 79.49-6.71 79.77-6.35 80.05-5.98 80.44-5.82 80.83-5.66 81.32-5.66L81.32-5.66Q82.1-5.66 83.03-5.9 83.95-6.13 84.88-6.49L84.88-6.49Q85.18-6.62 85.38-6.68 85.59-6.74 85.74-6.74L85.74-6.74Q85.98-6.74 86.07-6.52 86.15-6.3 86.24-5.75 86.32-5.2 86.49-4.27 86.66-3.34 87.06-1.93L87.06-1.93Q87.08-1.81 87.09-1.72 87.1-1.64 87.1-1.56L87.1-1.56Q87.1-1.22 86.85-1.07 86.59-0.93 86.01-0.73L86.01-0.73Q85-0.39 83.89-0.04 82.78 0.32 81.7 0.61 80.61 0.9 79.61 1.09 78.61 1.27 77.85 1.27L77.85 1.27Q73.77 1.27 71.91-0.76 70.04-2.78 70.04-6.93L70.04-6.93Q70.04-7.64 70.09-8.39 70.14-9.13 70.21-9.94L70.21-9.94Q70.45-12.38 70.64-14.56 70.82-16.75 71.02-18.75L71.02-18.75 68.45-18.75Q67.13-18.75 66.55-18.86 65.96-18.97 65.96-19.31L65.96-19.31Q65.96-19.41 66.21-19.84 66.45-20.26 66.83-20.86 67.21-21.46 67.65-22.14 68.09-22.83 68.49-23.43 68.89-24.02 69.18-24.46 69.48-24.9 69.55-25L69.55-25 71.28-25Q71.5-26.86 71.64-28.11 71.77-29.37 71.86-30.2 71.94-31.03 72.02-31.48 72.09-31.93 72.18-32.15 72.26-32.37 72.39-32.43 72.53-32.5 72.75-32.54L72.75-32.54Q73.85-32.76 74.87-32.95 75.9-33.13 76.92-33.33 77.95-33.52 79.01-33.78 80.07-34.03 81.22-34.38L81.22-34.38Q81.29-34.38 81.32-34.39 81.34-34.4 81.42-34.4L81.42-34.4Q81.71-34.4 81.71-34.2L81.71-34.2 81.71-34.16Q81.59-32.81 81.33-30.42 81.07-28.03 80.76-25L80.76-25 87.3-25Q87.5-25 87.68-24.87 87.86-24.73 87.86-24.41L87.86-24.41Q87.86-24.29 87.57-23.54 87.28-22.78 86.74-21.56L86.74-21.56 85.86-19.58Q85.69-19.21 85.51-19.04 85.32-18.87 84.76-18.82L84.76-18.82ZM104.05-27.25L104.05-27.25Q106.36-27.25 108.26-26.38 110.15-25.51 111.5-24.13 112.86-22.75 113.59-21.04 114.32-19.34 114.32-17.63L114.32-17.63Q114.32-16.11 113.4-14.59 112.47-13.06 110.8-11.84 109.12-10.62 106.78-9.86 104.44-9.11 101.63-9.11L101.63-9.11Q100.16-9.11 98.55-9.4L98.55-9.4Q98.65-8.35 99.16-7.59 99.68-6.84 100.46-6.35 101.24-5.86 102.23-5.63 103.22-5.4 104.26-5.4L104.26-5.4Q105.44-5.4 106.52-5.6 107.61-5.81 108.61-6.15 109.61-6.49 110.54-6.91 111.47-7.32 112.3-7.74L112.3-7.74Q112.52-7.79 112.68-7.82 112.83-7.86 112.98-7.86L112.98-7.86Q112.98-7.86 112.97-7.47 112.96-7.08 112.96-6.37 112.96-5.66 112.94-4.66 112.93-3.66 112.91-2.44L112.91-2.44Q112.98-2.32 113.01-2.2 113.03-2.08 113.03-2L113.03-2Q113.03-1.71 112.49-1.37 111.96-1.03 111.09-0.66 110.22-0.29 109.11 0.05 108 0.39 106.85 0.67 105.71 0.95 104.63 1.11 103.56 1.27 102.75 1.27L102.75 1.27Q100.11 1.27 97.64 0.35 95.16-0.56 93.24-2.27 91.33-3.98 90.18-6.42 89.03-8.86 89.03-11.91L89.03-11.91Q89.03-15.11 90.13-17.91 91.23-20.7 93.22-22.78 95.21-24.85 97.97-26.05 100.72-27.25 104.05-27.25ZM103.75-20.75L103.75-20.75Q102.75-20.75 101.91-20.32 101.07-19.9 100.37-19.1 99.68-18.31 99.16-17.2 98.65-16.09 98.33-14.75L98.33-14.75Q100.85-15.19 102.51-15.67 104.17-16.16 105.17-16.66 106.17-17.16 106.58-17.66 107-18.16 107-18.63L107-18.63Q107-19.07 106.67-19.46 106.34-19.85 105.85-20.14 105.36-20.43 104.79-20.59 104.22-20.75 103.75-20.75ZM129.34 0L120.67 0Q120.18 0 119.63-0.05 119.08-0.1 118.63-0.23 118.18-0.37 117.87-0.59 117.57-0.81 117.57-1.17L117.57-1.17Q117.57-1.2 117.59-1.25 117.62-1.29 117.62-1.34L117.62-1.34 126.24-19.02Q125.21-19.02 123.94-18.98 122.67-18.95 121.39-18.91 120.11-18.87 118.95-18.85 117.79-18.82 116.98-18.82L116.98-18.82Q116.74-18.82 116.62-18.98 116.49-19.14 116.49-19.34L116.49-19.34 116.49-19.43 118.96-25.32Q119.16-25.98 119.69-26.17 120.23-26.37 120.77-26.37L120.77-26.37Q125.06-26.37 129.2-26.22 133.34-26.07 137.61-26.07L137.61-26.07Q137.88-26.07 138.16-25.9 138.44-25.73 138.44-25.49L138.44-25.49Q138.44-25.46 138.39-25.32L138.39-25.32 130.65-8.42Q130.65-8.37 130.79-8.35 130.92-8.33 131.13-8.3 131.34-8.28 131.55-8.28 131.75-8.28 131.9-8.28L131.9-8.28Q133.44-8.28 134.88-8.35 136.32-8.42 137.78-8.42L137.78-8.42Q138.05-8.42 138.25-8.3 138.44-8.18 138.44-7.81L138.44-7.81Q138.44-7.76 138.39-7.76L138.39-7.76 135.32-1.34Q135.1-0.88 134.54-0.61 133.97-0.34 133.17-0.21 132.36-0.07 131.37-0.04 130.39 0 129.34 0L129.34 0ZM142.22-10.35L142.22-10.35Q142.54-13.7 142.86-16.97 143.18-20.24 143.42-23.68L143.42-23.68Q143.47-24.49 143.58-24.79 143.69-25.1 144.13-25.2L144.13-25.2Q146.2-25.61 148.47-26.06 150.74-26.51 152.87-27.22L152.87-27.22Q152.94-27.25 153.09-27.25L153.09-27.25Q153.36-27.25 153.36-27.05L153.36-27.05 151.16-3.27Q151.09-2.47 150.99-2.16 150.89-1.86 150.45-1.76L150.45-1.76Q148.38-1.12 146.25-0.34 144.13 0.44 141.76 1.25L141.76 1.25Q141.69 1.27 141.54 1.27L141.54 1.27Q141.27 1.27 141.27 1.03L141.27 1.03Q141.27 1 141.32 0.37 141.37-0.27 141.45-1.27 141.54-2.27 141.64-3.52 141.74-4.76 141.85-6.01 141.96-7.25 142.05-8.4 142.15-9.55 142.22-10.35ZM144.05-29.83L144.05-29.83Q144.13-30.88 144.16-31.45 144.2-32.01 144.23-32.29 144.25-32.57 144.25-32.64 144.25-32.71 144.26-32.75 144.27-32.79 144.29-32.9 144.3-33.01 144.32-33.36 144.35-33.72 144.4-34.4 144.45-35.08 144.54-36.28L144.54-36.28Q144.59-37.08 144.7-37.39 144.81-37.7 145.25-37.79L145.25-37.79Q147.33-38.21 149.6-38.66 151.87-39.11 153.99-39.82L153.99-39.82Q154.06-39.84 154.21-39.84L154.21-39.84Q154.28-39.7 154.41-39.65L154.41-39.65 154.48-39.6 153.94-32.91Q153.87-32.1 153.76-31.79 153.65-31.47 153.23-31.4L153.23-31.4Q151.16-31.01 149.04-30.54 146.91-30.08 144.54-29.61L144.54-29.61Q144.47-29.59 144.32-29.59L144.32-29.59Q144.05-29.59 144.05-29.83ZM183.97-27.66L181.45-4.91Q181.43-4.81 181.43-4.72 181.43-4.64 181.43-4.57L181.43-4.57Q181.43-3.96 181.63-3.55 181.82-3.15 182.05-2.89 182.28-2.64 182.48-2.48 182.68-2.32 182.68-2.2L182.68-2.2Q182.68-1.86 181.94-1.56L181.94-1.56 175.38 1.25Q175.35 1.27 175.2 1.27L175.2 1.27Q175.01 1.27 174.81 0.93 174.62 0.59 174.44 0.06 174.25-0.46 174.09-1.06 173.94-1.66 173.81-2.17L173.81-2.17Q172.28-0.39 170.49 0.44 168.71 1.27 166.95 1.27L166.95 1.27Q164.9 1.27 162.95 0.37 161-0.54 159.48-2.21 157.97-3.88 157.05-6.25 156.14-8.62 156.14-11.57L156.14-11.57Q156.14-15.06 157.15-17.94 158.16-20.83 159.9-22.9 161.63-24.98 163.94-26.11 166.24-27.25 168.83-27.25L168.83-27.25Q170.66-27.25 172.3-26.5 173.94-25.76 175.4-24.58L175.4-24.58Q175.55-25.32 175.57-25.76 175.6-26.2 175.68-26.44 175.77-26.68 176.01-26.77 176.25-26.86 176.82-26.9L176.82-26.9Q178.57-27.15 180.32-27.36 182.07-27.56 183.97-27.66L183.97-27.66ZM173.13-6.88L174.15-14.11Q174.4-15.5 174.48-16.74 174.57-17.97 174.62-18.99L174.62-18.99Q174.23-19.29 173.78-19.6 173.32-19.92 172.8-20.2 172.28-20.48 171.7-20.65 171.13-20.83 170.49-20.83L170.49-20.83Q169.17-20.83 168.28-19.97 167.39-19.12 166.84-17.87 166.29-16.63 166.06-15.23 165.83-13.84 165.83-12.77L165.83-12.77Q165.83-8.91 166.84-7.12 167.86-5.32 169.66-5.32L169.66-5.32Q170.4-5.32 171.3-5.74 172.2-6.15 173.13-6.88L173.13-6.88Z" opacity="1" transform="matrix(1,0,0,1,0,0)" fill="#275bc3" class="undefined-text-0" data-fill-palette-color="primary" id="text-0"></path></svg></g></svg></g></svg></g></svg></g><g></g></svg></g></svg></g></svg></g></svg></g></svg><rect width="320" height="360" fill="none" stroke="none" visibility="hidden"></rect></g></svg></g></svg>